<svg width="24" height="24" viewBox="0 0 24 24" fill="none" xmlns="http://www.w3.org/2000/svg">
<g id="Frame">
<path id="Vector" opacity="0.2" d="M4 12.5914V14C4 19.5 5.5 21 11 21H13C18.5 21 20 19.5 20 14V12.5914C17.8387 12.3168 14.7447 12 12 12C9.25531 12 6.16129 12.3168 4 12.5914Z" fill="white"/>
<path id="Vector_2" d="M9.64731 2.71134L1.48746 8.64578C1.1812 8.86852 1 9.22435 1 9.60304C1 10.3344 1.65458 10.8945 2.37874 10.7917C4.44258 10.4986 8.47044 10.0003 12 10.0003C15.5296 10.0003 19.5574 10.4986 21.6213 10.7917C22.3454 10.8945 23 10.3344 23 9.60304C23 9.22435 22.8188 8.86852 22.5125 8.64578L14.3527 2.71134C12.9501 1.69127 11.0499 1.69127 9.64731 2.71134Z" fill="white"/>
<path id="Vector_3" fill-rule="evenodd" clip-rule="evenodd" d="M4 14V12.5914C6.16129 12.3168 9.25531 12 12 12C14.7447 12 17.8387 12.3168 20 12.5914V14C20 19.5 18.5 21 13 21H11C5.5 21 4 19.5 4 14ZM12 14C13.9609 14 16.1336 14.1707 17.9973 14.3703C17.9614 16.8185 17.566 17.7306 17.1483 18.1482C16.7102 18.5863 15.7281 19 13 19H11C8.27189 19 7.28981 18.5863 6.85171 18.1482C6.43404 17.7306 6.03862 16.8185 6.00266 14.3703C7.86644 14.1707 10.0391 14 12 14Z" fill="white"/>
</g>
</svg>
