<svg width="24" height="24" viewBox="0 0 24 24" fill="none" xmlns="http://www.w3.org/2000/svg">
<g id="Frame">
<path id="Vector" fill-rule="evenodd" clip-rule="evenodd" d="M11.9989 21.5015C17.2457 21.5015 21.4989 17.2482 21.4989 12.0015C21.4989 6.75477 17.2457 2.50146 11.9989 2.50146C6.75224 2.50146 2.49895 6.75477 2.49895 12.0015C2.49895 17.2482 6.75224 21.5015 11.9989 21.5015ZM8.45867 9.74417C8.45867 8.48215 9.48174 7.45908 10.7438 7.45908H11.4586V6.50053C11.4586 6.20137 11.7011 5.95886 12.0002 5.95886C12.2994 5.95886 12.5419 6.20137 12.5419 6.50053V7.45908H13.0003C14.4041 7.45908 15.542 8.59703 15.542 10.0008C15.542 10.2999 15.2995 10.5424 15.0003 10.5424C14.7012 10.5424 14.4587 10.2999 14.4587 10.0008C14.4587 9.19534 13.8058 8.54243 13.0003 8.54243H12.5419V11.6103L13.9795 12.0895C14.9126 12.4005 15.542 13.2738 15.542 14.2573C15.542 15.5194 14.5189 16.5424 13.2569 16.5424H12.5419V17.5005C12.5419 17.7997 12.2994 18.0422 12.0002 18.0422C11.7011 18.0422 11.4586 17.7997 11.4586 17.5005V16.5424H11.0003C9.59661 16.5424 8.45867 15.4045 8.45867 14.0008C8.45867 13.7016 8.70118 13.4591 9.00034 13.4591C9.29949 13.4591 9.542 13.7016 9.542 14.0008C9.542 14.8062 10.1949 15.4591 11.0003 15.4591H11.4586V12.3911L10.0211 11.912C9.08805 11.601 8.45867 10.7277 8.45867 9.74417ZM11.4586 11.2492V8.54243H10.7438C10.08 8.54243 9.542 9.08046 9.542 9.74417C9.542 10.2614 9.873 10.7207 10.3637 10.8842L11.4586 11.2492ZM12.5419 12.7522V15.4591H13.2569C13.9206 15.4591 14.4587 14.921 14.4587 14.2573C14.4587 13.7401 14.1277 13.2808 13.6369 13.1173L12.5419 12.7522Z" fill="white"/>
</g>
</svg>
